<svg width="1001" height="1000" viewBox="0 0 1001 1000" fill="none" xmlns="http://www.w3.org/2000/svg">
<g clip-path="url(#clip0_1125_676)">
<path d="M188.27 178.708V41.6667H451.853L188.27 178.708ZM292.436 729.167C292.436 833.333 146.603 1000 146.603 1000C146.603 1000 0.769531 833.333 0.769531 729.167C0.769531 648.625 66.0612 583.333 146.603 583.333C227.145 583.333 292.436 648.625 292.436 729.167ZM209.103 729.167C209.103 694.667 181.103 666.667 146.603 666.667C112.103 666.667 84.1029 694.667 84.1029 729.167C84.1029 763.667 112.103 791.667 146.603 791.667C181.103 791.667 209.103 763.667 209.103 729.167ZM896.603 270.833H729.936V375H896.603V458.333H729.936V520.833H896.603V604.167H729.936V666.667H896.603V750H729.936V812.5H896.603V895.833H729.936V1000H896.603C954.144 1000 1000.77 953.375 1000.77 895.833V375C1000.77 317.458 954.144 270.833 896.603 270.833ZM667.436 0V1000H227.478C276.52 937.125 354.936 822 354.936 729.167C354.936 614.292 261.478 520.833 146.603 520.833V270.833L667.436 0ZM375.77 354.167H250.77V479.167H375.77V354.167ZM584.103 770.833H459.103V895.833H584.103V770.833ZM584.103 562.5H459.103V687.5H584.103V562.5ZM584.103 354.167H459.103V479.167H584.103V354.167Z" fill="#FD015E"/>
</g>
<defs>
<clipPath id="clip0_1125_676">
<rect width="1000" height="1000" fill="white" transform="translate(0.769531)"/>
</clipPath>
</defs>
</svg>
