<svg width="1450" height="1450" viewBox="0 0 1450 1450" fill="none" xmlns="http://www.w3.org/2000/svg">
<path d="M954.529 32.6237C951.53 33.6077 947.835 36.1383 946.37 38.1768C945.464 39.5826 427.729 1019.9 417.688 1039.3C416.502 1041.62 416.084 1043.65 416.014 1047.1C416.014 1051.04 416.293 1052.23 418.106 1055.11C419.431 1057.29 421.523 1059.4 423.615 1060.74C426.543 1062.49 427.729 1062.84 431.633 1062.84H436.235L935.493 800.369C1210.08 656.056 1435.59 537.331 1436.63 536.557C1437.75 535.784 1439.42 533.746 1440.47 531.918C1442.91 527.771 1443.19 521.023 1441.17 516.875C1439.35 513.29 969.381 35.2948 965.964 33.678C963.036 32.2721 957.318 31.7802 954.529 32.6237Z" fill="#FD015E"/>
<path d="M11.554 43.2129C9.81292 44.3777 7.73369 46.1571 7.02875 47.1777C5.21161 49.8432 3.70675 55.3036 4.07857 58.0193C4.3646 60.1083 291.345 935.134 294.17 942.404C297.472 951.099 307.108 955.151 315.625 951.553C319.143 949.999 323.149 945.326 324.301 941.405C327.209 931.279 534.056 36.0067 534.077 33.591C534.088 26.9902 528.462 19.8256 522.147 18.4336C519.97 17.9559 445.996 21.0819 268.87 29.123C131.207 35.4341 17.749 40.6479 16.7129 40.792C15.6077 40.9458 13.3641 42.0386 11.554 43.2129Z" fill="#FD015E"/>
<path d="M1001.53 1075.68C776.129 1124.88 575.715 1168.67 556.092 1172.93L520.441 1180.73L517.178 1183.21C509.205 1189.21 510.433 1199.93 519.579 1204.37C522.647 1205.93 1408.22 1432.1 1411.71 1432.27C1415.05 1432.44 1420.95 1430.38 1423.29 1428.27C1424.31 1427.32 1425.8 1425.4 1426.5 1424.03C1427.73 1421.63 1427.79 1411.78 1428.81 1211.19C1429.37 1095.51 1429.74 999.75 1429.52 998.391C1428.9 992.499 1421.57 986.629 1414.53 986.401C1412.23 986.288 1294 1011.84 1001.53 1075.68Z" fill="#FD015E"/>
</svg>
