<svg width="140" height="95" viewBox="0 0 140 95" fill="none" xmlns="http://www.w3.org/2000/svg">
<path d="M11.4316 129.978C-2.83358 109.77 3.49991 83.3401 10.1569 61.7048C16.3475 41.5854 44.5214 19.7686 63.3738 12.3916C78.2148 6.58424 93.6933 6.14804 109.261 4.10633C122.837 2.32596 140.669 3.19371 153.317 8.72695C159.655 11.4999 178.871 15.9353 182.076 23.1465C183.604 26.5855 188.99 29.7074 191.397 33.1844C193.947 36.8683 196.798 40.2111 199.284 43.9393" stroke="#FD015E" stroke-width="5" stroke-linecap="round"/>
<path d="M32.9421 127.11C21.924 108.288 15.2845 91.5228 25.4535 71.1848C33.8643 54.3632 57.1057 41.3256 73.8107 33.9011C93.1191 25.3196 122.145 25.4288 141.208 33.9011C151.446 38.4515 159.646 44.0646 169.171 49.3563C175.269 52.7439 184.692 59.2071 187.813 65.4488" stroke="#FD015E" stroke-width="5" stroke-linecap="round"/>
<path d="M67.3575 121.373C55.8738 112.674 46.9545 95.1969 51.9023 80.9032C57.0569 66.012 76.4509 58.1594 91.098 56.7644C109.095 55.0504 129.666 48.9652 145.43 61.863C155.17 69.8318 162.174 77.8975 169.171 88.3918" stroke="#FD015E" stroke-width="5" stroke-linecap="round"/>
<path d="M91.7344 119.941C84.4522 110.037 77.3945 102.184 77.3945 89.1104C77.3945 79.7519 95.4457 78.4514 101.454 76.6028C125.799 69.112 143.358 82.3435 143.358 107.035" stroke="#FD015E" stroke-width="5" stroke-linecap="round"/>
<path d="M106.075 118.506C98.0666 107.494 98.7761 90.2402 116.113 91.26C123.819 91.7133 127.585 106.958 127.585 112.77" stroke="#FD015E" stroke-width="5" stroke-linecap="round"/>
</svg>
