<svg width="1001" height="1000" viewBox="0 0 1001 1000" fill="none" xmlns="http://www.w3.org/2000/svg">
<g clip-path="url(#clip0_1121_292)">
<path d="M850.769 0H150.77C67.9362 0 0.769531 67.1667 0.769531 150V850C0.769531 932.833 67.9362 1000 150.77 1000H850.769C933.603 1000 1000.77 932.833 1000.77 850V150C1000.77 67.1667 933.603 0 850.769 0ZM563.269 291.667H792.436V354.167H563.269V291.667ZM403.769 807.167L228.269 907.583C217.603 913.667 205.936 916.708 194.27 916.708C182.478 916.708 170.645 913.583 159.936 907.375C138.561 894.958 125.811 872.792 125.811 848.083V500L188.311 562.5V848.083C188.311 850.417 189.311 852.167 191.311 853.292C193.27 854.417 195.27 854.458 197.27 853.292L372.769 752.875C374.853 751.667 375.853 749.875 375.811 747.458C375.728 745.042 374.644 743.292 372.478 742.208L275.561 693.75L259.645 615.875L400.478 686.292C423.103 697.625 437.603 720.375 438.311 745.667C438.936 771.083 425.728 794.625 403.769 807.167ZM282.02 437.5C184.395 437.5 104.936 358.042 104.936 260.417C104.936 162.792 184.395 83.3333 282.02 83.3333C317.519 83.3333 351.728 93.7917 381.061 113.583L346.061 165.375C327.145 152.583 304.978 145.833 282.02 145.833C218.853 145.833 167.436 197.25 167.436 260.417C167.436 323.583 218.853 375 282.02 375C334.353 375 378.644 339.708 392.269 291.667H292.436V229.167H427.853C445.103 229.167 459.103 243.167 459.103 260.417C459.103 358.042 379.644 437.5 282.02 437.5ZM792.436 812.5H563.269V750H792.436V812.5ZM896.603 666.667H563.269V604.167H896.603V666.667ZM896.603 208.333H563.269V145.833H896.603V208.333Z" fill="#FD015E"/>
</g>
<defs>
<clipPath id="clip0_1121_292">
<rect width="1000" height="1000" fill="white" transform="translate(0.769531)"/>
</clipPath>
</defs>
</svg>
