<svg width="1001" height="1000" viewBox="0 0 1001 1000" fill="none" xmlns="http://www.w3.org/2000/svg">
<g clip-path="url(#clip0_1121_286)">
<path d="M0.769531 715.333V499.999L302.103 198.666C342.77 158 408.728 158 449.436 198.666L552.103 301.333C592.77 342 658.728 342 699.436 301.333L1000.77 -0.000488281V423.666L633.686 575C606.853 586.083 577.686 588.624 549.311 582.458L469.936 565.208C424.936 555.416 378.645 559.541 336.103 577.083L0.769531 715.333ZM665.436 652.083C622.895 669.625 576.603 673.75 531.603 663.958L452.228 646.708C423.853 640.541 394.686 643.125 367.853 654.166L0.769531 805.5V895.833C0.769531 953.374 47.3945 999.999 104.936 999.999H896.603C954.145 999.999 1000.77 953.374 1000.77 895.833V513.833L665.436 652.083Z" fill="#FD015E"/>
</g>
<defs>
<clipPath id="clip0_1121_286">
<rect width="1000" height="1000" fill="white" transform="translate(0.769531)"/>
</clipPath>
</defs>
</svg>
