<svg width="1001" height="1000" viewBox="0 0 1001 1000" fill="none" xmlns="http://www.w3.org/2000/svg">
<g clip-path="url(#clip0_1121_284)">
<path d="M500.77 0C224.645 0 0.769531 223.875 0.769531 500C0.769531 776.125 224.645 1000 500.77 1000C776.894 1000 1000.77 776.125 1000.77 500C1000.77 223.875 776.894 0 500.77 0ZM847.103 573.625C813.144 733.667 670.811 854.167 500.77 854.167C466.52 854.167 433.478 849 402.103 839.917C397.103 844.958 391.603 849.625 385.186 853.333C345.728 876.125 295.311 862.583 272.52 823.125C261.478 804.042 259.145 782.417 263.936 762.542C192.103 697.708 146.603 604.167 146.603 500C146.603 399.75 188.645 309.333 255.811 244.833C253.936 237.917 252.603 230.75 252.603 223.25C252.603 177.708 289.52 140.792 335.061 140.792C356.936 140.792 376.686 149.458 391.436 163.333C425.895 152.083 462.603 145.833 500.77 145.833C554.603 145.833 606.311 157.583 654.436 180.833L627.27 237.125C587.686 218 545.103 208.333 500.77 208.333C471.728 208.333 443.77 212.708 417.27 220.667C417.311 221.542 417.52 222.375 417.52 223.25C417.52 268.792 380.603 305.708 335.02 305.708C320.061 305.708 306.186 301.417 294.061 294.417C241.603 347.208 209.103 419.875 209.103 500C209.103 583.417 244.52 658.583 300.853 711.792C301.52 711.375 302.02 710.875 302.686 710.458C342.145 687.667 392.561 701.208 415.353 740.667C422.811 753.583 426.02 767.708 426.061 781.625C449.936 787.958 474.936 791.667 500.77 791.667C638.395 791.667 753.769 695.75 784.269 567.292C783.561 566.917 782.769 566.708 782.061 566.292C742.603 543.5 729.103 493.083 751.853 453.625C759.394 440.583 770.103 430.667 782.311 423.667C774.686 395.375 762.728 368.458 746.728 343.5L664.686 409.042C679.978 436.708 688.228 468.083 688.228 500C688.228 603.375 604.103 687.5 500.728 687.5C397.353 687.5 313.228 603.375 313.228 500C313.228 396.625 397.353 312.5 500.728 312.5C529.228 312.5 556.603 318.75 582.103 331.042L554.936 387.333C538.02 379.167 519.77 375 500.77 375C431.853 375 375.77 431.083 375.77 500C375.77 568.917 431.853 625 500.77 625C569.686 625 625.77 568.917 625.77 500C625.77 482.083 621.686 465 614.561 449.125L541.728 507.292C538.27 526.792 521.311 541.667 500.811 541.667C477.811 541.667 459.145 523 459.145 500C459.145 477 477.811 458.333 500.811 458.333C501.436 458.333 502.061 458.5 502.686 458.5L842.395 187.208L881.395 236.042L795.978 304.25C818.52 338.25 834.853 375.958 844.603 415.458C851.478 417.292 858.228 419.708 864.645 423.417C904.103 446.208 917.603 496.625 894.853 536.083C883.853 555.042 866.478 567.792 847.103 573.625Z" fill="#FD015E"/>
</g>
<defs>
<clipPath id="clip0_1121_284">
<rect width="1000" height="1000" fill="white" transform="translate(0.769531)"/>
</clipPath>
</defs>
</svg>
