<svg width="1001" height="1000" viewBox="0 0 1001 1000" fill="none" xmlns="http://www.w3.org/2000/svg">
<g clip-path="url(#clip0_1121_288)">
<path d="M896.603 0H104.936C47.3945 0 0.769531 46.625 0.769531 104.167V687.5C0.769531 745.042 47.3945 791.667 104.936 791.667H209.103C266.645 791.667 313.27 838.292 313.27 895.833V1000L579.728 791.667H896.603C954.144 791.667 1000.77 745.042 1000.77 687.5V104.167C1000.77 46.625 954.144 0 896.603 0ZM238.728 455.583L260.27 541.667L185.02 494.625L109.77 541.667L131.27 455.583L63.2695 398.542L151.811 392.375L185.02 310.083L218.228 392.375L306.77 398.542L238.728 455.583ZM617.061 541.667L500.77 468.958L384.478 541.667L417.686 408.625L312.645 320.5L449.436 310.958L500.77 183.792L552.103 310.958L688.894 320.5L583.811 408.625L617.061 541.667ZM870.269 455.583L891.769 541.667L816.519 494.625L741.27 541.667L762.77 455.583L694.769 398.583L783.311 392.417L816.519 310.125L849.728 392.417L938.269 398.542L870.269 455.583Z" fill="#FD015E"/>
</g>
<defs>
<clipPath id="clip0_1121_288">
<rect width="1000" height="1000" fill="white" transform="translate(0.769531)"/>
</clipPath>
</defs>
</svg>
