<svg width="1001" height="1000" viewBox="0 0 1001 1000" fill="none" xmlns="http://www.w3.org/2000/svg">
<g clip-path="url(#clip0_1138_78)">
<path d="M329.428 629.375C294.012 564.75 225.345 520.833 146.595 520.833C139.553 520.833 132.637 521.208 125.762 521.875V421.708C148.012 431.792 172.678 437.5 198.678 437.5C242.345 437.5 282.345 421.625 313.262 395.333C344.178 421.625 384.178 437.5 427.845 437.5C471.512 437.5 511.512 421.625 542.428 395.333C573.345 421.625 613.345 437.5 657.012 437.5C700.678 437.5 740.678 421.625 771.595 395.333C802.512 421.625 842.512 437.5 886.178 437.5C907.053 437.5 927.053 433.833 945.678 427.208L707.178 665.75C674.47 698.458 621.262 698.458 588.553 665.75L544.345 621.542C487.262 564.458 394.387 564.458 337.345 621.542L329.428 629.375ZM751.345 709.917C694.262 767 601.387 767 544.345 709.917L500.137 665.708C467.428 633 414.22 633 381.512 665.708L352.137 695.083C353.97 706.167 354.97 717.542 354.97 729.167C354.97 775.333 335.553 827 310.053 875H854.928C912.47 875 959.095 828.375 959.095 770.833V502.167L751.345 709.917ZM956.887 80.75C946.012 33.4583 903.887 0 855.387 0H229.47C180.97 0 138.845 33.4583 127.97 80.75L84.095 250V260.417C84.095 323.708 135.387 375 198.678 375C261.97 375 313.262 323.708 313.262 260.417C313.262 323.708 364.553 375 427.845 375C491.137 375 542.428 323.708 542.428 260.417C542.428 323.708 593.72 375 657.012 375C720.303 375 771.595 323.708 771.595 260.417C771.595 323.708 822.887 375 886.178 375C949.47 375 1000.76 323.708 1000.76 260.417V250L956.887 80.75ZM292.428 729.167C292.428 833.333 146.595 1000 146.595 1000C146.595 1000 0.761719 833.333 0.761719 729.167C0.761719 648.625 66.0534 583.333 146.595 583.333C227.137 583.333 292.428 648.625 292.428 729.167ZM209.095 729.167C209.095 694.667 181.095 666.667 146.595 666.667C112.095 666.667 84.095 694.667 84.095 729.167C84.095 763.667 112.095 791.667 146.595 791.667C181.095 791.667 209.095 763.667 209.095 729.167Z" fill="#FD015E"/>
</g>
<defs>
<clipPath id="clip0_1138_78">
<rect width="1000" height="1000" fill="white" transform="translate(0.769531)"/>
</clipPath>
</defs>
</svg>
