<svg xmlns="http://www.w3.org/2000/svg" xmlns:xlink="http://www.w3.org/1999/xlink" width="870.918" height="577.393" viewBox="0 0 870.918 577.393">
  <defs>
    <clipPath id="clip-path">
      <path id="Path_170" data-name="Path 170" d="M0,430.924H777.918V-22.335H0Z" transform="translate(0 22.335)" fill="#e6e9f4"/>
    </clipPath>
    <clipPath id="clip-path-2">
      <path id="Path_174" data-name="Path 174" d="M0,5.707H44.2V-33.452H0Z" transform="translate(0 33.452)" fill="#4c88ff"/>
    </clipPath>
    <clipPath id="clip-path-3">
      <path id="Path_455" data-name="Path 455" d="M0,10.55H23.9V-24.137H0Z" transform="translate(0 24.137)" fill="#b7eed2"/>
    </clipPath>
  </defs>
  <g id="Group_820" data-name="Group 820" transform="translate(-136 -11366.055)">
    <g id="Group_639" data-name="Group 639" transform="translate(229 11366.055)" opacity="0.27">
      <g id="Group_21" data-name="Group 21" transform="translate(0 0)" clip-path="url(#clip-path)">
        <g id="Group_15" data-name="Group 15" transform="translate(501.77 365.002)">
          <path id="Path_164" data-name="Path 164" d="M239.261,83.908A157.231,157.231,0,0,0,263.735,18.2L-12.4-4.349Z" transform="translate(12.401 4.349)" fill="#e6e9f4"/>
        </g>
        <g id="Group_16" data-name="Group 16" transform="translate(474.438 180.839)">
          <path id="Path_165" data-name="Path 165" d="M267.044,82.712c-14.551-29.974-35.27-59.258-61.287-87l-219.6,114.213Z" transform="translate(13.841 4.287)" fill="#e6e9f4"/>
        </g>
        <g id="Group_17" data-name="Group 17" transform="translate(389.83 20.846)">
          <path id="Path_166" data-name="Path 166" d="M146.555,46.787A655.647,655.647,0,0,0,20.835-2.425L-7.6,212.729Z" transform="translate(7.596 2.425)" fill="#e6e9f4"/>
        </g>
        <g id="Group_18" data-name="Group 18" transform="translate(136.108 0.002)">
          <path id="Path_167" data-name="Path 167" d="M96.025,0A420.417,420.417,0,0,0,42.49,6.514,345.044,345.044,0,0,0-4.977,18.853L147,217.447Z" transform="translate(4.977)" fill="#e6e9f4"/>
        </g>
        <g id="Group_19" data-name="Group 19" transform="translate(4.239 81.477)">
          <path id="Path_168" data-name="Path 168" d="M31.14,0A162.075,162.075,0,0,0-1.614,56.66l213,106.664Z" transform="translate(1.614)" fill="#e6e9f4"/>
        </g>
        <g id="Group_20" data-name="Group 20" transform="translate(0 228.464)">
          <path id="Path_169" data-name="Path 169" d="M0,0A244.132,244.132,0,0,0,21.532,60.82l179.64,11.2Z" fill="#e6e9f4"/>
        </g>
      </g>
    </g>
    <g id="Group_640" data-name="Group 640" transform="translate(786.798 11904.288)">
      <g id="Group_24" data-name="Group 24" transform="translate(8.772 0)">
        <path id="Path_171" data-name="Path 171" d="M2.35,0-1.82,11.818l-11.957,3.755,11.818,4.17L1.8,31.7l4.17-11.818,11.958-3.755L6.106,11.957Z" transform="translate(13.777)" fill="#4c88ff"/>
      </g>
      <g id="Group_27" data-name="Group 27" transform="translate(0 0)" clip-path="url(#clip-path-2)">
        <g id="Group_25" data-name="Group 25" transform="translate(36.743 31.7)">
          <path id="Path_172" data-name="Path 172" d="M.544,1.087a3.73,3.73,0,0,0,3.73-3.73,3.73,3.73,0,0,0-3.73-3.73,3.73,3.73,0,0,0-3.73,3.73,3.73,3.73,0,0,0,3.73,3.73" transform="translate(3.186 6.372)" fill="#4c88ff"/>
        </g>
        <g id="Group_26" data-name="Group 26" transform="translate(0 -0.001)">
          <path id="Path_173" data-name="Path 173" d="M.544,1.087a3.73,3.73,0,0,0,3.73-3.73,3.73,3.73,0,0,0-3.73-3.73,3.73,3.73,0,0,0-3.73,3.73,3.73,3.73,0,0,0,3.73,3.73" transform="translate(3.186 6.372)" fill="#4c88ff"/>
        </g>
      </g>
    </g>
    <g id="Group_642" data-name="Group 642" transform="translate(-1548.229 11289.867)">
      <g id="Group_486" data-name="Group 486" transform="translate(11 42.197)">
        <circle id="Ellipse_6174" data-name="Ellipse 6174" cx="5" cy="5" r="5" transform="translate(1737.371 231.303)" fill="#ee3150"/>
        <circle id="Ellipse_6175" data-name="Ellipse 6175" cx="2.5" cy="2.5" r="2.5" transform="translate(1721.371 241.303)" fill="#ee3150"/>
      </g>
    </g>
    <g id="Group_643" data-name="Group 643" transform="translate(136 11545.729)">
      <g id="Group_484" data-name="Group 484" transform="translate(0 -24.137)" clip-path="url(#clip-path-3)">
        <g id="Group_483" data-name="Group 483" transform="translate(0 0)">
          <path id="Path_454" data-name="Path 454" d="M3.633,0A12.063,12.063,0,0,0-8.313,12.173a12.534,12.534,0,0,0,.1,1.518c1.02,9.5,11.073,20.467,11.073,20.467a1.97,1.97,0,0,0,.512.423h.011l.332.106.333-.106h.01a2.042,2.042,0,0,0,.52-.423S14.49,23.181,15.489,13.669a14.538,14.538,0,0,0,.093-1.5A12.063,12.063,0,0,0,3.633,0m0,20.011a7.772,7.772,0,0,1-7.678-7.838A7.763,7.763,0,0,1,3.633,4.346a7.763,7.763,0,0,1,7.681,7.828,7.773,7.773,0,0,1-7.681,7.838" transform="translate(8.313)" fill="#b7eed2"/>
        </g>
      </g>
    </g>
  </g>
</svg>
